<mxfile host="app.diagrams.net" modified="2024-01-19T10:35:01.985Z" agent="Mozilla/5.0 (Windows NT 10.0; Win64; x64) AppleWebKit/537.36 (KHTML, like Gecko) Chrome/120.0.0.0 Safari/537.36" etag="UZUWy7zGDcNTp-xpnKZ-" version="22.1.20" type="device">
  <diagram name="Page-1" id="rc0uClVn3gRNKsO3K7OQ">
    <mxGraphModel dx="1434" dy="746" grid="1" gridSize="10" guides="1" tooltips="1" connect="1" arrows="1" fold="1" page="1" pageScale="1" pageWidth="850" pageHeight="1100" math="0" shadow="0">
      <root>
        <mxCell id="0" />
        <mxCell id="1" parent="0" />
        <mxCell id="CN7lLkrJ3gJ0pNhlrKH9-1" value="&lt;font style=&quot;font-size: 18px;&quot;&gt;reallyold&lt;/font&gt;" style="rounded=0;whiteSpace=wrap;html=1;labelPosition=center;verticalLabelPosition=top;align=center;verticalAlign=bottom;" vertex="1" parent="1">
          <mxGeometry x="270" y="100" width="220" height="100" as="geometry" />
        </mxCell>
        <mxCell id="CN7lLkrJ3gJ0pNhlrKH9-2" value="O1&lt;br&gt;G_OLD" style="ellipse;whiteSpace=wrap;html=1;aspect=fixed;fillColor=#647687;fontColor=#ffffff;strokeColor=#314354;" vertex="1" parent="1">
          <mxGeometry x="290" y="110" width="80" height="80" as="geometry" />
        </mxCell>
        <mxCell id="CN7lLkrJ3gJ0pNhlrKH9-3" style="edgeStyle=orthogonalEdgeStyle;rounded=0;orthogonalLoop=1;jettySize=auto;html=1;exitX=0;exitY=0.5;exitDx=0;exitDy=0;entryX=1;entryY=0.5;entryDx=0;entryDy=0;" edge="1" parent="1" source="CN7lLkrJ3gJ0pNhlrKH9-4" target="CN7lLkrJ3gJ0pNhlrKH9-2">
          <mxGeometry relative="1" as="geometry" />
        </mxCell>
        <mxCell id="CN7lLkrJ3gJ0pNhlrKH9-4" value="O2&lt;br&gt;G_TOUCHED1" style="ellipse;whiteSpace=wrap;html=1;aspect=fixed;fillColor=#bac8d3;strokeColor=#23445d;" vertex="1" parent="1">
          <mxGeometry x="390" y="110" width="80" height="80" as="geometry" />
        </mxCell>
        <mxCell id="CN7lLkrJ3gJ0pNhlrKH9-5" value="&lt;font style=&quot;font-size: 16px;&quot;&gt;g-&amp;gt;allgc&lt;/font&gt;" style="rounded=1;whiteSpace=wrap;html=1;" vertex="1" parent="1">
          <mxGeometry x="520" y="20" width="90" height="30" as="geometry" />
        </mxCell>
        <mxCell id="CN7lLkrJ3gJ0pNhlrKH9-6" value="&lt;font style=&quot;font-size: 18px;&quot;&gt;survival&lt;/font&gt;" style="rounded=0;whiteSpace=wrap;html=1;labelPosition=center;verticalLabelPosition=top;align=center;verticalAlign=bottom;" vertex="1" parent="1">
          <mxGeometry x="490" y="100" width="150" height="100" as="geometry" />
        </mxCell>
        <mxCell id="CN7lLkrJ3gJ0pNhlrKH9-7" style="edgeStyle=orthogonalEdgeStyle;rounded=0;orthogonalLoop=1;jettySize=auto;html=1;exitX=0;exitY=0.5;exitDx=0;exitDy=0;entryX=1;entryY=0.5;entryDx=0;entryDy=0;" edge="1" parent="1" source="CN7lLkrJ3gJ0pNhlrKH9-8" target="CN7lLkrJ3gJ0pNhlrKH9-4">
          <mxGeometry relative="1" as="geometry" />
        </mxCell>
        <mxCell id="CN7lLkrJ3gJ0pNhlrKH9-8" value="O4&lt;br&gt;G_SURVIVAL" style="ellipse;whiteSpace=wrap;html=1;aspect=fixed;" vertex="1" parent="1">
          <mxGeometry x="520" y="110" width="80" height="80" as="geometry" />
        </mxCell>
        <mxCell id="CN7lLkrJ3gJ0pNhlrKH9-10" value="&lt;font style=&quot;font-size: 16px;&quot;&gt;ref&lt;/font&gt;" style="edgeStyle=orthogonalEdgeStyle;rounded=0;orthogonalLoop=1;jettySize=auto;html=1;exitX=0.5;exitY=0;exitDx=0;exitDy=0;entryX=0.5;entryY=0;entryDx=0;entryDy=0;curved=1;" edge="1" parent="1" source="CN7lLkrJ3gJ0pNhlrKH9-4" target="CN7lLkrJ3gJ0pNhlrKH9-8">
          <mxGeometry relative="1" as="geometry">
            <Array as="points">
              <mxPoint x="430" y="70" />
              <mxPoint x="560" y="70" />
            </Array>
          </mxGeometry>
        </mxCell>
        <mxCell id="CN7lLkrJ3gJ0pNhlrKH9-11" value="&lt;font style=&quot;font-size: 18px;&quot;&gt;grayagain&lt;/font&gt;" style="rounded=0;whiteSpace=wrap;html=1;labelPosition=center;verticalLabelPosition=top;align=center;verticalAlign=bottom;" vertex="1" parent="1">
          <mxGeometry y="100" width="220" height="100" as="geometry" />
        </mxCell>
        <mxCell id="CN7lLkrJ3gJ0pNhlrKH9-12" value="O2" style="ellipse;whiteSpace=wrap;html=1;aspect=fixed;fillColor=#bac8d3;strokeColor=#23445d;" vertex="1" parent="1">
          <mxGeometry x="20" y="110" width="80" height="80" as="geometry" />
        </mxCell>
        <mxCell id="CN7lLkrJ3gJ0pNhlrKH9-13" value="&lt;font style=&quot;font-size: 18px;&quot;&gt;new&lt;/font&gt;" style="rounded=0;whiteSpace=wrap;html=1;labelPosition=center;verticalLabelPosition=top;align=center;verticalAlign=bottom;" vertex="1" parent="1">
          <mxGeometry x="640" y="100" width="210" height="100" as="geometry" />
        </mxCell>
        <mxCell id="CN7lLkrJ3gJ0pNhlrKH9-17" style="edgeStyle=orthogonalEdgeStyle;rounded=0;orthogonalLoop=1;jettySize=auto;html=1;exitX=0;exitY=0.5;exitDx=0;exitDy=0;entryX=1;entryY=0.5;entryDx=0;entryDy=0;" edge="1" parent="1" source="CN7lLkrJ3gJ0pNhlrKH9-14" target="CN7lLkrJ3gJ0pNhlrKH9-8">
          <mxGeometry relative="1" as="geometry" />
        </mxCell>
        <mxCell id="CN7lLkrJ3gJ0pNhlrKH9-14" value="O6&lt;br&gt;G_NEW" style="ellipse;whiteSpace=wrap;html=1;aspect=fixed;" vertex="1" parent="1">
          <mxGeometry x="659" y="110" width="80" height="80" as="geometry" />
        </mxCell>
        <mxCell id="CN7lLkrJ3gJ0pNhlrKH9-18" style="edgeStyle=orthogonalEdgeStyle;rounded=0;orthogonalLoop=1;jettySize=auto;html=1;exitX=0;exitY=0.5;exitDx=0;exitDy=0;entryX=1;entryY=0.5;entryDx=0;entryDy=0;" edge="1" parent="1" source="CN7lLkrJ3gJ0pNhlrKH9-15" target="CN7lLkrJ3gJ0pNhlrKH9-14">
          <mxGeometry relative="1" as="geometry" />
        </mxCell>
        <mxCell id="CN7lLkrJ3gJ0pNhlrKH9-15" value="O7&lt;br&gt;G_NEW" style="ellipse;whiteSpace=wrap;html=1;aspect=fixed;" vertex="1" parent="1">
          <mxGeometry x="760" y="110" width="80" height="80" as="geometry" />
        </mxCell>
        <mxCell id="CN7lLkrJ3gJ0pNhlrKH9-16" style="edgeStyle=orthogonalEdgeStyle;rounded=0;orthogonalLoop=1;jettySize=auto;html=1;exitX=1;exitY=0.5;exitDx=0;exitDy=0;" edge="1" parent="1" source="CN7lLkrJ3gJ0pNhlrKH9-5" target="CN7lLkrJ3gJ0pNhlrKH9-15">
          <mxGeometry relative="1" as="geometry" />
        </mxCell>
        <mxCell id="CN7lLkrJ3gJ0pNhlrKH9-19" value="&lt;font style=&quot;font-size: 16px;&quot;&gt;ref&lt;/font&gt;" style="edgeStyle=orthogonalEdgeStyle;rounded=0;orthogonalLoop=1;jettySize=auto;html=1;exitX=0.5;exitY=1;exitDx=0;exitDy=0;entryX=0.5;entryY=1;entryDx=0;entryDy=0;curved=1;" edge="1" parent="1" source="CN7lLkrJ3gJ0pNhlrKH9-4" target="CN7lLkrJ3gJ0pNhlrKH9-15">
          <mxGeometry relative="1" as="geometry">
            <Array as="points">
              <mxPoint x="430" y="220" />
              <mxPoint x="800" y="220" />
            </Array>
          </mxGeometry>
        </mxCell>
        <mxCell id="CN7lLkrJ3gJ0pNhlrKH9-20" value="&lt;font style=&quot;font-size: 18px;&quot;&gt;reallyold&lt;/font&gt;" style="rounded=0;whiteSpace=wrap;html=1;labelPosition=center;verticalLabelPosition=top;align=center;verticalAlign=bottom;" vertex="1" parent="1">
          <mxGeometry x="270" y="380" width="220" height="100" as="geometry" />
        </mxCell>
        <mxCell id="CN7lLkrJ3gJ0pNhlrKH9-21" value="O1&lt;br&gt;G_OLD" style="ellipse;whiteSpace=wrap;html=1;aspect=fixed;fillColor=#647687;fontColor=#ffffff;strokeColor=#314354;" vertex="1" parent="1">
          <mxGeometry x="290" y="390" width="80" height="80" as="geometry" />
        </mxCell>
        <mxCell id="CN7lLkrJ3gJ0pNhlrKH9-22" style="edgeStyle=orthogonalEdgeStyle;rounded=0;orthogonalLoop=1;jettySize=auto;html=1;exitX=0;exitY=0.5;exitDx=0;exitDy=0;entryX=1;entryY=0.5;entryDx=0;entryDy=0;" edge="1" parent="1" source="CN7lLkrJ3gJ0pNhlrKH9-23" target="CN7lLkrJ3gJ0pNhlrKH9-21">
          <mxGeometry relative="1" as="geometry" />
        </mxCell>
        <mxCell id="CN7lLkrJ3gJ0pNhlrKH9-23" value="O2&lt;br&gt;G_TOUCHED1" style="ellipse;whiteSpace=wrap;html=1;aspect=fixed;fillColor=#647687;strokeColor=#314354;fontColor=#ffffff;" vertex="1" parent="1">
          <mxGeometry x="390" y="390" width="80" height="80" as="geometry" />
        </mxCell>
        <mxCell id="CN7lLkrJ3gJ0pNhlrKH9-24" value="&lt;font style=&quot;font-size: 16px;&quot;&gt;g-&amp;gt;allgc&lt;/font&gt;" style="rounded=1;whiteSpace=wrap;html=1;" vertex="1" parent="1">
          <mxGeometry x="520" y="300" width="90" height="30" as="geometry" />
        </mxCell>
        <mxCell id="CN7lLkrJ3gJ0pNhlrKH9-25" value="&lt;font style=&quot;font-size: 18px;&quot;&gt;survival&lt;/font&gt;" style="rounded=0;whiteSpace=wrap;html=1;labelPosition=center;verticalLabelPosition=top;align=center;verticalAlign=bottom;" vertex="1" parent="1">
          <mxGeometry x="490" y="380" width="150" height="100" as="geometry" />
        </mxCell>
        <mxCell id="CN7lLkrJ3gJ0pNhlrKH9-26" style="edgeStyle=orthogonalEdgeStyle;rounded=0;orthogonalLoop=1;jettySize=auto;html=1;exitX=0;exitY=0.5;exitDx=0;exitDy=0;entryX=1;entryY=0.5;entryDx=0;entryDy=0;" edge="1" parent="1" source="CN7lLkrJ3gJ0pNhlrKH9-27" target="CN7lLkrJ3gJ0pNhlrKH9-23">
          <mxGeometry relative="1" as="geometry" />
        </mxCell>
        <mxCell id="CN7lLkrJ3gJ0pNhlrKH9-27" value="O4&lt;br&gt;G_SURVIVAL" style="ellipse;whiteSpace=wrap;html=1;aspect=fixed;fillColor=#647687;fontColor=#ffffff;strokeColor=#314354;" vertex="1" parent="1">
          <mxGeometry x="520" y="390" width="80" height="80" as="geometry" />
        </mxCell>
        <mxCell id="CN7lLkrJ3gJ0pNhlrKH9-28" value="&lt;font style=&quot;font-size: 16px;&quot;&gt;ref&lt;/font&gt;" style="edgeStyle=orthogonalEdgeStyle;rounded=0;orthogonalLoop=1;jettySize=auto;html=1;exitX=0.5;exitY=0;exitDx=0;exitDy=0;entryX=0.5;entryY=0;entryDx=0;entryDy=0;curved=1;" edge="1" parent="1" source="CN7lLkrJ3gJ0pNhlrKH9-23" target="CN7lLkrJ3gJ0pNhlrKH9-27">
          <mxGeometry relative="1" as="geometry">
            <Array as="points">
              <mxPoint x="430" y="350" />
              <mxPoint x="560" y="350" />
            </Array>
          </mxGeometry>
        </mxCell>
        <mxCell id="CN7lLkrJ3gJ0pNhlrKH9-29" value="&lt;font style=&quot;font-size: 18px;&quot;&gt;grayagain&lt;/font&gt;" style="rounded=0;whiteSpace=wrap;html=1;labelPosition=center;verticalLabelPosition=top;align=center;verticalAlign=bottom;" vertex="1" parent="1">
          <mxGeometry y="380" width="220" height="100" as="geometry" />
        </mxCell>
        <mxCell id="CN7lLkrJ3gJ0pNhlrKH9-31" value="&lt;font style=&quot;font-size: 18px;&quot;&gt;new&lt;/font&gt;" style="rounded=0;whiteSpace=wrap;html=1;labelPosition=center;verticalLabelPosition=top;align=center;verticalAlign=bottom;" vertex="1" parent="1">
          <mxGeometry x="640" y="380" width="210" height="100" as="geometry" />
        </mxCell>
        <mxCell id="CN7lLkrJ3gJ0pNhlrKH9-32" style="edgeStyle=orthogonalEdgeStyle;rounded=0;orthogonalLoop=1;jettySize=auto;html=1;exitX=0;exitY=0.5;exitDx=0;exitDy=0;entryX=1;entryY=0.5;entryDx=0;entryDy=0;" edge="1" parent="1" source="CN7lLkrJ3gJ0pNhlrKH9-33" target="CN7lLkrJ3gJ0pNhlrKH9-27">
          <mxGeometry relative="1" as="geometry" />
        </mxCell>
        <mxCell id="CN7lLkrJ3gJ0pNhlrKH9-33" value="O6&lt;br&gt;G_NEW" style="ellipse;whiteSpace=wrap;html=1;aspect=fixed;" vertex="1" parent="1">
          <mxGeometry x="659" y="390" width="80" height="80" as="geometry" />
        </mxCell>
        <mxCell id="CN7lLkrJ3gJ0pNhlrKH9-34" style="edgeStyle=orthogonalEdgeStyle;rounded=0;orthogonalLoop=1;jettySize=auto;html=1;exitX=0;exitY=0.5;exitDx=0;exitDy=0;entryX=1;entryY=0.5;entryDx=0;entryDy=0;" edge="1" parent="1" source="CN7lLkrJ3gJ0pNhlrKH9-35" target="CN7lLkrJ3gJ0pNhlrKH9-33">
          <mxGeometry relative="1" as="geometry" />
        </mxCell>
        <mxCell id="CN7lLkrJ3gJ0pNhlrKH9-35" value="O7&lt;br&gt;G_SURVIVAL" style="ellipse;whiteSpace=wrap;html=1;aspect=fixed;fillColor=#647687;fontColor=#ffffff;strokeColor=#314354;" vertex="1" parent="1">
          <mxGeometry x="760" y="390" width="80" height="80" as="geometry" />
        </mxCell>
        <mxCell id="CN7lLkrJ3gJ0pNhlrKH9-36" style="edgeStyle=orthogonalEdgeStyle;rounded=0;orthogonalLoop=1;jettySize=auto;html=1;exitX=1;exitY=0.5;exitDx=0;exitDy=0;" edge="1" parent="1" source="CN7lLkrJ3gJ0pNhlrKH9-24" target="CN7lLkrJ3gJ0pNhlrKH9-35">
          <mxGeometry relative="1" as="geometry" />
        </mxCell>
        <mxCell id="CN7lLkrJ3gJ0pNhlrKH9-37" value="&lt;font style=&quot;font-size: 16px;&quot;&gt;ref&lt;/font&gt;" style="edgeStyle=orthogonalEdgeStyle;rounded=0;orthogonalLoop=1;jettySize=auto;html=1;exitX=0.5;exitY=1;exitDx=0;exitDy=0;entryX=0.5;entryY=1;entryDx=0;entryDy=0;curved=1;" edge="1" parent="1" source="CN7lLkrJ3gJ0pNhlrKH9-23" target="CN7lLkrJ3gJ0pNhlrKH9-35">
          <mxGeometry relative="1" as="geometry">
            <Array as="points">
              <mxPoint x="430" y="500" />
              <mxPoint x="800" y="500" />
            </Array>
          </mxGeometry>
        </mxCell>
        <mxCell id="CN7lLkrJ3gJ0pNhlrKH9-38" value="&lt;font style=&quot;font-size: 18px;&quot;&gt;reallyold&lt;/font&gt;" style="rounded=0;whiteSpace=wrap;html=1;labelPosition=center;verticalLabelPosition=top;align=center;verticalAlign=bottom;" vertex="1" parent="1">
          <mxGeometry x="270" y="670" width="220" height="100" as="geometry" />
        </mxCell>
        <mxCell id="CN7lLkrJ3gJ0pNhlrKH9-39" value="O1&lt;br&gt;G_OLD" style="ellipse;whiteSpace=wrap;html=1;aspect=fixed;fillColor=#647687;fontColor=#ffffff;strokeColor=#314354;" vertex="1" parent="1">
          <mxGeometry x="290" y="680" width="80" height="80" as="geometry" />
        </mxCell>
        <mxCell id="CN7lLkrJ3gJ0pNhlrKH9-40" style="edgeStyle=orthogonalEdgeStyle;rounded=0;orthogonalLoop=1;jettySize=auto;html=1;exitX=0;exitY=0.5;exitDx=0;exitDy=0;entryX=1;entryY=0.5;entryDx=0;entryDy=0;" edge="1" parent="1" source="CN7lLkrJ3gJ0pNhlrKH9-41" target="CN7lLkrJ3gJ0pNhlrKH9-39">
          <mxGeometry relative="1" as="geometry" />
        </mxCell>
        <mxCell id="CN7lLkrJ3gJ0pNhlrKH9-41" value="O2&lt;br&gt;G_TOUCHED2" style="ellipse;whiteSpace=wrap;html=1;aspect=fixed;fillColor=#647687;strokeColor=#314354;fontColor=#ffffff;" vertex="1" parent="1">
          <mxGeometry x="390" y="680" width="80" height="80" as="geometry" />
        </mxCell>
        <mxCell id="CN7lLkrJ3gJ0pNhlrKH9-42" value="&lt;font style=&quot;font-size: 16px;&quot;&gt;g-&amp;gt;allgc&lt;/font&gt;" style="rounded=1;whiteSpace=wrap;html=1;" vertex="1" parent="1">
          <mxGeometry x="520" y="590" width="90" height="30" as="geometry" />
        </mxCell>
        <mxCell id="CN7lLkrJ3gJ0pNhlrKH9-43" value="&lt;font style=&quot;font-size: 18px;&quot;&gt;old1&lt;/font&gt;" style="rounded=0;whiteSpace=wrap;html=1;labelPosition=center;verticalLabelPosition=top;align=center;verticalAlign=bottom;" vertex="1" parent="1">
          <mxGeometry x="490" y="670" width="150" height="100" as="geometry" />
        </mxCell>
        <mxCell id="CN7lLkrJ3gJ0pNhlrKH9-44" style="edgeStyle=orthogonalEdgeStyle;rounded=0;orthogonalLoop=1;jettySize=auto;html=1;exitX=0;exitY=0.5;exitDx=0;exitDy=0;entryX=1;entryY=0.5;entryDx=0;entryDy=0;" edge="1" parent="1" source="CN7lLkrJ3gJ0pNhlrKH9-45" target="CN7lLkrJ3gJ0pNhlrKH9-41">
          <mxGeometry relative="1" as="geometry" />
        </mxCell>
        <mxCell id="CN7lLkrJ3gJ0pNhlrKH9-45" value="O4&lt;br&gt;G_OLD1" style="ellipse;whiteSpace=wrap;html=1;aspect=fixed;fillColor=#647687;fontColor=#ffffff;strokeColor=#314354;" vertex="1" parent="1">
          <mxGeometry x="520" y="680" width="80" height="80" as="geometry" />
        </mxCell>
        <mxCell id="CN7lLkrJ3gJ0pNhlrKH9-46" value="&lt;font style=&quot;font-size: 16px;&quot;&gt;ref&lt;/font&gt;" style="edgeStyle=orthogonalEdgeStyle;rounded=0;orthogonalLoop=1;jettySize=auto;html=1;exitX=0.5;exitY=0;exitDx=0;exitDy=0;entryX=0.5;entryY=0;entryDx=0;entryDy=0;curved=1;" edge="1" parent="1" source="CN7lLkrJ3gJ0pNhlrKH9-41" target="CN7lLkrJ3gJ0pNhlrKH9-45">
          <mxGeometry relative="1" as="geometry">
            <Array as="points">
              <mxPoint x="430" y="640" />
              <mxPoint x="560" y="640" />
            </Array>
          </mxGeometry>
        </mxCell>
        <mxCell id="CN7lLkrJ3gJ0pNhlrKH9-47" value="&lt;font style=&quot;font-size: 18px;&quot;&gt;grayagain&lt;/font&gt;" style="rounded=0;whiteSpace=wrap;html=1;labelPosition=center;verticalLabelPosition=top;align=center;verticalAlign=bottom;" vertex="1" parent="1">
          <mxGeometry y="670" width="220" height="100" as="geometry" />
        </mxCell>
        <mxCell id="CN7lLkrJ3gJ0pNhlrKH9-48" value="&lt;font style=&quot;font-size: 18px;&quot;&gt;survival&lt;/font&gt;" style="rounded=0;whiteSpace=wrap;html=1;labelPosition=center;verticalLabelPosition=top;align=center;verticalAlign=bottom;" vertex="1" parent="1">
          <mxGeometry x="639" y="670" width="100" height="100" as="geometry" />
        </mxCell>
        <mxCell id="CN7lLkrJ3gJ0pNhlrKH9-56" style="edgeStyle=orthogonalEdgeStyle;rounded=0;orthogonalLoop=1;jettySize=auto;html=1;exitX=0;exitY=0.5;exitDx=0;exitDy=0;" edge="1" parent="1" source="CN7lLkrJ3gJ0pNhlrKH9-52" target="CN7lLkrJ3gJ0pNhlrKH9-45">
          <mxGeometry relative="1" as="geometry" />
        </mxCell>
        <mxCell id="CN7lLkrJ3gJ0pNhlrKH9-52" value="O7&lt;br&gt;G_SURVIVAL" style="ellipse;whiteSpace=wrap;html=1;aspect=fixed;" vertex="1" parent="1">
          <mxGeometry x="649" y="680" width="80" height="80" as="geometry" />
        </mxCell>
        <mxCell id="CN7lLkrJ3gJ0pNhlrKH9-53" style="edgeStyle=orthogonalEdgeStyle;rounded=0;orthogonalLoop=1;jettySize=auto;html=1;exitX=1;exitY=0.5;exitDx=0;exitDy=0;" edge="1" parent="1" source="CN7lLkrJ3gJ0pNhlrKH9-42" target="CN7lLkrJ3gJ0pNhlrKH9-52">
          <mxGeometry relative="1" as="geometry" />
        </mxCell>
        <mxCell id="CN7lLkrJ3gJ0pNhlrKH9-54" value="&lt;font style=&quot;font-size: 16px;&quot;&gt;ref&lt;/font&gt;" style="edgeStyle=orthogonalEdgeStyle;rounded=0;orthogonalLoop=1;jettySize=auto;html=1;exitX=0.5;exitY=1;exitDx=0;exitDy=0;entryX=0.5;entryY=1;entryDx=0;entryDy=0;curved=1;" edge="1" parent="1" source="CN7lLkrJ3gJ0pNhlrKH9-41" target="CN7lLkrJ3gJ0pNhlrKH9-52">
          <mxGeometry relative="1" as="geometry">
            <Array as="points">
              <mxPoint x="430" y="790" />
              <mxPoint x="690" y="790" />
            </Array>
          </mxGeometry>
        </mxCell>
        <mxCell id="CN7lLkrJ3gJ0pNhlrKH9-55" value="O2" style="ellipse;whiteSpace=wrap;html=1;aspect=fixed;fillColor=#bac8d3;strokeColor=#23445d;" vertex="1" parent="1">
          <mxGeometry x="10" y="680" width="80" height="80" as="geometry" />
        </mxCell>
      </root>
    </mxGraphModel>
  </diagram>
</mxfile>
